<?xml version="1.0" encoding="UTF-8"?>
<svg xmlns="http://www.w3.org/2000/svg" xmlns:xlink="http://www.w3.org/1999/xlink" width="499px" height="345px" viewBox="0 0 499 345" version="1.1">
<g id="surface1">
<path style=" stroke:none;fill-rule:nonzero;fill:rgb(100%,72.156863%,72.156863%);fill-opacity:1;" d="M 403.75 165.027344 L 416.035156 192.707031 L 413.082031 226.941406 C 411.175781 228.554688 410.519531 231.207031 411.449219 233.519531 C 412.378906 235.835938 414.6875 237.296875 417.179688 237.144531 C 419.667969 236.996094 421.785156 235.265625 422.425781 232.851562 C 423.066406 230.441406 422.09375 227.886719 420.007812 226.519531 L 420.488281 226.433594 L 425.304688 192.222656 L 417.363281 157.71875 Z M 403.75 165.027344 "/>
<path style=" stroke:none;fill-rule:nonzero;fill:rgb(90.196078%,90.196078%,90.196078%);fill-opacity:1;" d="M 390.59375 342.8125 C 390.59375 341.550781 380.773438 340.53125 368.664062 340.53125 C 356.550781 340.53125 346.734375 341.550781 346.734375 342.8125 C 346.734375 344.074219 356.550781 345.097656 368.664062 345.097656 C 380.773438 345.097656 390.59375 344.074219 390.59375 342.8125 Z M 390.59375 342.8125 "/>
<path style=" stroke:none;fill-rule:nonzero;fill:rgb(90.196078%,90.196078%,90.196078%);fill-opacity:1;" d="M 455.464844 342.8125 C 455.464844 341.550781 445.644531 340.53125 433.535156 340.53125 C 421.425781 340.53125 411.605469 341.550781 411.605469 342.8125 C 411.605469 344.074219 421.425781 345.097656 433.535156 345.097656 C 445.644531 345.097656 455.464844 344.074219 455.464844 342.8125 Z M 455.464844 342.8125 "/>
<path style=" stroke:none;fill-rule:nonzero;fill:rgb(90.196078%,90.196078%,90.196078%);fill-opacity:1;" d="M 498.863281 343.527344 C 498.863281 342.660156 492.113281 341.957031 483.789062 341.957031 C 475.460938 341.957031 468.710938 342.660156 468.710938 343.527344 C 468.710938 344.394531 475.460938 345.097656 483.789062 345.097656 C 492.113281 345.097656 498.863281 344.394531 498.863281 343.527344 Z M 498.863281 343.527344 "/>
<path style=" stroke:none;fill-rule:nonzero;fill:rgb(90.196078%,90.196078%,90.196078%);fill-opacity:1;" d="M 488.101562 331.621094 C 487.996094 335.539062 487.339844 339.417969 486.15625 343.152344 C 486.128906 343.238281 486.097656 343.324219 486.070312 343.410156 L 478.800781 343.410156 C 478.808594 343.332031 478.816406 343.246094 478.824219 343.152344 C 479.308594 337.578125 482.101562 303.660156 478.761719 297.859375 C 479.054688 298.328125 488.664062 313.914062 488.101562 331.621094 Z M 488.101562 331.621094 "/>
<path style=" stroke:none;fill-rule:nonzero;fill:rgb(90.196078%,90.196078%,90.196078%);fill-opacity:1;" d="M 487.558594 343.152344 C 487.496094 343.238281 487.433594 343.324219 487.367188 343.410156 L 481.914062 343.410156 C 481.957031 343.335938 482.003906 343.25 482.058594 343.152344 C 482.960938 341.523438 485.625 336.664062 488.101562 331.621094 C 490.761719 326.207031 493.203125 320.582031 492.996094 318.546875 C 493.058594 319.007812 494.902344 332.996094 487.558594 343.152344 Z M 487.558594 343.152344 "/>
<path style=" stroke:none;fill-rule:nonzero;fill:rgb(90.196078%,90.196078%,90.196078%);fill-opacity:1;" d="M 335.199219 218.734375 L 3.988281 218.734375 C 1.785156 218.730469 0.00390625 216.945312 0 214.746094 L 0 3.988281 C 0.00390625 1.785156 1.785156 0.00390625 3.988281 0 L 335.199219 0 C 337.398438 0.00390625 339.183594 1.785156 339.183594 3.988281 L 339.183594 214.746094 C 339.183594 216.945312 337.398438 218.730469 335.199219 218.734375 Z M 3.988281 1.578125 C 2.65625 1.578125 1.578125 2.65625 1.578125 3.988281 L 1.578125 214.746094 C 1.578125 216.074219 2.65625 217.152344 3.988281 217.15625 L 335.199219 217.15625 C 336.527344 217.152344 337.605469 216.074219 337.609375 214.746094 L 337.609375 3.988281 C 337.605469 2.65625 336.527344 1.578125 335.199219 1.578125 Z M 3.988281 1.578125 "/>
<path style=" stroke:none;fill-rule:nonzero;fill:rgb(24.705882%,23.921569%,33.72549%);fill-opacity:1;" d="M 249.40625 31.070312 L 73.921875 31.070312 C 72.125 31.074219 70.671875 32.527344 70.671875 34.324219 L 70.671875 184.410156 C 70.671875 186.203125 72.125 187.660156 73.921875 187.660156 L 249.40625 187.660156 C 251.203125 187.660156 252.65625 186.203125 252.660156 184.410156 L 252.660156 34.324219 C 252.65625 32.527344 251.203125 31.074219 249.40625 31.070312 Z M 251.351562 184.410156 C 251.351562 185.484375 250.484375 186.359375 249.40625 186.363281 L 73.921875 186.363281 C 72.84375 186.363281 71.972656 185.488281 71.976562 184.410156 L 71.976562 34.324219 C 71.972656 33.246094 72.84375 32.371094 73.921875 32.367188 L 249.40625 32.367188 C 250.484375 32.375 251.351562 33.246094 251.351562 34.324219 Z M 251.351562 184.410156 "/>
<path style=" stroke:none;fill-rule:nonzero;fill:rgb(16.078431%,34.901961%,67.45098%);fill-opacity:1;" d="M 114.425781 160.972656 C 114.425781 161.207031 114.421875 161.4375 114.410156 161.664062 C 114.039062 168.695312 108.230469 174.210938 101.191406 174.210938 C 94.148438 174.210938 88.339844 168.695312 87.972656 161.664062 C 87.957031 161.4375 87.953125 161.207031 87.953125 160.972656 C 87.953125 153.664062 93.878906 147.734375 101.191406 147.734375 C 108.5 147.734375 114.425781 153.664062 114.425781 160.972656 Z M 114.425781 160.972656 "/>
<path style=" stroke:none;fill-rule:nonzero;fill:rgb(16.078431%,34.901961%,67.45098%);fill-opacity:1;" d="M 235.769531 152.144531 L 131.757812 152.144531 C 130.574219 152.191406 129.632812 153.164062 129.632812 154.351562 C 129.632812 155.539062 130.574219 156.515625 131.757812 156.5625 L 235.769531 156.5625 C 236.988281 156.605469 238.011719 155.652344 238.058594 154.4375 C 238.105469 153.21875 237.15625 152.195312 235.9375 152.144531 C 235.882812 152.144531 235.828125 152.144531 235.769531 152.144531 Z M 235.769531 152.144531 "/>
<path style=" stroke:none;fill-rule:nonzero;fill:rgb(90.196078%,90.196078%,90.196078%);fill-opacity:1;" d="M 176.515625 165.386719 L 131.757812 165.386719 C 130.542969 165.386719 129.554688 166.375 129.554688 167.59375 C 129.554688 168.808594 130.542969 169.796875 131.757812 169.796875 L 176.515625 169.796875 C 177.730469 169.800781 178.71875 168.8125 178.722656 167.597656 C 178.722656 166.378906 177.738281 165.390625 176.523438 165.386719 Z M 176.515625 165.386719 "/>
<path style=" stroke:none;fill-rule:nonzero;fill:rgb(16.078431%,34.901961%,67.45098%);fill-opacity:1;" d="M 291.097656 135.773438 L 115.609375 135.773438 C 113.566406 135.769531 111.90625 134.109375 111.90625 132.066406 L 111.90625 55.035156 C 111.90625 52.988281 113.566406 51.332031 115.609375 51.328125 L 291.097656 51.328125 C 293.144531 51.332031 294.800781 52.988281 294.804688 55.035156 L 294.804688 132.0625 C 294.800781 134.109375 293.144531 135.769531 291.097656 135.773438 Z M 291.097656 135.773438 "/>
<path style=" stroke:none;fill-rule:nonzero;fill:rgb(100%,100%,100%);fill-opacity:1;" d="M 151.351562 78.632812 C 150.132812 78.582031 149.101562 79.523438 149.050781 80.742188 C 148.996094 81.960938 149.941406 82.992188 151.160156 83.046875 C 151.222656 83.050781 151.289062 83.050781 151.351562 83.046875 L 255.363281 83.046875 C 256.542969 82.996094 257.472656 82.023438 257.472656 80.839844 C 257.472656 79.65625 256.542969 78.683594 255.363281 78.632812 Z M 151.351562 78.632812 "/>
<path style=" stroke:none;fill-rule:nonzero;fill:rgb(100%,100%,100%);fill-opacity:1;" d="M 151.351562 91.421875 C 150.132812 91.367188 149.101562 92.3125 149.050781 93.53125 C 148.996094 94.75 149.941406 95.78125 151.160156 95.832031 C 151.222656 95.835938 151.289062 95.835938 151.351562 95.832031 L 255.363281 95.832031 C 256.542969 95.78125 257.472656 94.808594 257.472656 93.628906 C 257.472656 92.445312 256.542969 91.472656 255.363281 91.421875 Z M 151.351562 91.421875 "/>
<path style=" stroke:none;fill-rule:nonzero;fill:rgb(100%,100%,100%);fill-opacity:1;" d="M 151.351562 104.050781 C 150.171875 104.101562 149.238281 105.074219 149.238281 106.257812 C 149.238281 107.441406 150.171875 108.414062 151.351562 108.464844 L 196.109375 108.464844 C 197.324219 108.519531 198.355469 107.574219 198.410156 106.355469 C 198.464844 105.136719 197.519531 104.105469 196.300781 104.050781 C 196.234375 104.046875 196.171875 104.046875 196.109375 104.050781 Z M 151.351562 104.050781 "/>
<path style=" stroke:none;fill-rule:nonzero;fill:rgb(16.078431%,34.901961%,67.45098%);fill-opacity:1;" d="M 16.890625 11.222656 C 16.890625 12.734375 15.664062 13.964844 14.152344 13.964844 C 12.636719 13.964844 11.410156 12.734375 11.410156 11.222656 C 11.410156 9.707031 12.636719 8.480469 14.152344 8.480469 C 15.664062 8.480469 16.890625 9.707031 16.890625 11.222656 Z M 16.890625 11.222656 "/>
<path style=" stroke:none;fill-rule:nonzero;fill:rgb(16.078431%,34.901961%,67.45098%);fill-opacity:1;" d="M 26.484375 11.222656 C 26.484375 12.734375 25.257812 13.964844 23.746094 13.964844 C 22.230469 13.964844 21.003906 12.734375 21.003906 11.222656 C 21.003906 9.707031 22.230469 8.480469 23.746094 8.480469 C 25.257812 8.480469 26.484375 9.707031 26.484375 11.222656 Z M 26.484375 11.222656 "/>
<path style=" stroke:none;fill-rule:nonzero;fill:rgb(16.078431%,34.901961%,67.45098%);fill-opacity:1;" d="M 36.078125 11.222656 C 36.078125 12.734375 34.851562 13.964844 33.339844 13.964844 C 31.824219 13.964844 30.597656 12.734375 30.597656 11.222656 C 30.597656 9.707031 31.824219 8.480469 33.339844 8.480469 C 34.851562 8.480469 36.078125 9.707031 36.078125 11.222656 Z M 36.078125 11.222656 "/>
<path style=" stroke:none;fill-rule:nonzero;fill:rgb(100%,72.156863%,72.156863%);fill-opacity:1;" d="M 411.765625 118.414062 C 411.765625 125.160156 406.300781 130.628906 399.554688 130.628906 C 392.8125 130.628906 387.34375 125.160156 387.34375 118.414062 C 387.34375 111.671875 392.8125 106.203125 399.554688 106.203125 C 406.300781 106.203125 411.765625 111.671875 411.765625 118.414062 Z M 411.765625 118.414062 "/>
<path style=" stroke:none;fill-rule:nonzero;fill:rgb(16.078431%,34.901961%,67.45098%);fill-opacity:1;" d="M 375.40625 183.542969 L 407.472656 189.507812 C 418.285156 169.699219 424.246094 151.8125 414.183594 140.28125 L 395.167969 139.160156 C 383.015625 152.15625 372.738281 164.769531 379.722656 173.847656 Z M 375.40625 183.542969 "/>
<path style=" stroke:none;fill-rule:nonzero;fill:rgb(16.078431%,34.901961%,67.45098%);fill-opacity:1;" d="M 403.960938 167.988281 C 411.300781 170.796875 418.113281 168.355469 424.363281 160.351562 L 415.097656 142.46875 L 403.289062 144.808594 Z M 403.960938 167.988281 "/>
<path style=" stroke:none;fill-rule:nonzero;fill:rgb(18.431373%,18.039216%,25.490196%);fill-opacity:1;" d="M 372.421875 331.976562 L 385.097656 331.328125 L 393.300781 245.453125 L 435.0625 330.863281 L 448.113281 330.488281 L 423.132812 255.523438 C 422.148438 230.511719 421.117188 205.566406 410.457031 194.730469 L 406.726562 186.898438 L 376.898438 180.558594 L 372.796875 188.390625 C 363.285156 210.601562 368.867188 274.0625 372.421875 331.976562 Z M 372.421875 331.976562 "/>
<path style=" stroke:none;fill-rule:nonzero;fill:rgb(100%,72.156863%,72.156863%);fill-opacity:1;" d="M 387.707031 160.046875 L 377.269531 188.394531 L 358.335938 215.339844 C 355.847656 215.503906 353.738281 217.242188 353.105469 219.65625 C 352.476562 222.070312 353.460938 224.617188 355.550781 225.980469 C 357.640625 227.34375 360.371094 227.210938 362.324219 225.65625 C 364.273438 224.101562 365.011719 221.472656 364.152344 219.128906 L 364.589844 219.347656 L 388.828125 194.734375 L 402.996094 162.285156 Z M 387.707031 160.046875 "/>
<path style=" stroke:none;fill-rule:nonzero;fill:rgb(16.078431%,34.901961%,67.45098%);fill-opacity:1;" d="M 385.101562 160.046875 C 390.324219 165.917969 397.492188 166.882812 406.726562 162.65625 L 406.726562 142.519531 L 395.167969 139.160156 Z M 385.101562 160.046875 "/>
<path style=" stroke:none;fill-rule:nonzero;fill:rgb(18.431373%,18.039216%,25.490196%);fill-opacity:1;" d="M 437.847656 152.421875 C 435.992188 150.097656 433.402344 148.503906 430.890625 146.914062 C 428.375 145.324219 425.824219 143.632812 424.117188 141.199219 C 421.394531 137.3125 421.261719 132.203125 421.667969 127.476562 C 422.074219 122.746094 422.90625 117.917969 421.757812 113.316406 C 420.230469 107.222656 415.1875 102.292969 409.226562 100.328125 C 403.265625 98.359375 396.5625 99.199219 390.953125 102.019531 L 392.496094 100.566406 C 389.980469 101.085938 388.054688 103.117188 387.667969 105.65625 C 387.285156 108.195312 388.523438 110.703125 390.769531 111.945312 C 393.300781 113.339844 396.746094 112.941406 398.78125 114.992188 C 400.78125 117.015625 400.359375 120.332031 399.636719 123.085938 C 397.769531 130.207031 394.804688 137.0625 393.777344 144.355469 C 392.75 151.644531 394.050781 159.8125 399.457031 164.808594 C 403.433594 168.480469 409.082031 169.898438 414.492188 169.789062 C 419.902344 169.683594 425.179688 168.203125 430.386719 166.730469 C 434.039062 165.699219 438.15625 164.265625 439.585938 160.75 C 440.707031 157.996094 439.707031 154.746094 437.847656 152.421875 Z M 437.847656 152.421875 "/>
<path style=" stroke:none;fill-rule:nonzero;fill:rgb(18.431373%,18.039216%,25.490196%);fill-opacity:1;" d="M 385.417969 341.808594 L 358.195312 341.804688 L 358.195312 341.460938 C 358.199219 335.609375 362.941406 330.867188 368.792969 330.863281 L 385.417969 330.867188 Z M 385.417969 341.808594 "/>
<path style=" stroke:none;fill-rule:nonzero;fill:rgb(18.431373%,18.039216%,25.490196%);fill-opacity:1;" d="M 448.515625 340.753906 L 421.296875 340.753906 L 421.296875 340.410156 C 421.296875 334.558594 426.039062 329.8125 431.890625 329.8125 L 448.515625 329.8125 Z M 448.515625 340.753906 "/>
</g>
</svg>
