<svg xmlns="http://www.w3.org/2000/svg" xmlns:xlink="http://www.w3.org/1999/xlink" width="300" zoomAndPan="magnify" viewBox="0 0 224.87999 135.000003" height="180" preserveAspectRatio="xMidYMid meet" version="1.0"><defs><g/><clipPath id="1df99ca02d"><path d="M 24 28 L 51 28 L 51 74 L 24 74 Z M 24 28 " clip-rule="nonzero"/></clipPath><clipPath id="5c29c0b16b"><path d="M 34.566406 23.40625 L 65.199219 44.558594 L 44.050781 75.191406 L 13.417969 54.039062 Z M 34.566406 23.40625 " clip-rule="nonzero"/></clipPath><clipPath id="2dc25880c9"><path d="M 34.566406 23.40625 L 65.199219 44.558594 L 44.050781 75.191406 L 13.417969 54.039062 Z M 34.566406 23.40625 " clip-rule="nonzero"/></clipPath><clipPath id="7decc377de"><path d="M 34.566406 23.40625 L 65.199219 44.558594 L 44.050781 75.191406 L 13.417969 54.039062 Z M 34.566406 23.40625 " clip-rule="nonzero"/></clipPath><clipPath id="973af1bc3f"><path d="M 39 32 L 47 32 L 47 50 L 39 50 Z M 39 32 " clip-rule="nonzero"/></clipPath><clipPath id="527dc8684f"><path d="M 34.566406 23.40625 L 65.199219 44.558594 L 44.050781 75.191406 L 13.417969 54.039062 Z M 34.566406 23.40625 " clip-rule="nonzero"/></clipPath><clipPath id="15fefad0cb"><path d="M 34.566406 23.40625 L 65.199219 44.558594 L 44.050781 75.191406 L 13.417969 54.039062 Z M 34.566406 23.40625 " clip-rule="nonzero"/></clipPath><clipPath id="30dbe1a907"><path d="M 34.566406 23.40625 L 65.199219 44.558594 L 44.050781 75.191406 L 13.417969 54.039062 Z M 34.566406 23.40625 " clip-rule="nonzero"/></clipPath><clipPath id="d380eee5b8"><path d="M 24 28 L 51 28 L 51 74 L 24 74 Z M 24 28 " clip-rule="nonzero"/></clipPath><clipPath id="08cba312f9"><path d="M 34.566406 23.242188 L 65.199219 44.390625 L 44.050781 75.023438 L 13.417969 53.871094 Z M 34.566406 23.242188 " clip-rule="nonzero"/></clipPath><clipPath id="4dbf2f74dc"><path d="M 34.566406 23.242188 L 65.199219 44.390625 L 44.050781 75.023438 L 13.417969 53.871094 Z M 34.566406 23.242188 " clip-rule="nonzero"/></clipPath><clipPath id="b90f535891"><path d="M 39 32 L 47 32 L 47 49 L 39 49 Z M 39 32 " clip-rule="nonzero"/></clipPath><clipPath id="37021e7386"><path d="M 34.566406 23.242188 L 65.199219 44.390625 L 44.050781 75.023438 L 13.417969 53.871094 Z M 34.566406 23.242188 " clip-rule="nonzero"/></clipPath><clipPath id="0fe2fcda52"><path d="M 34.566406 23.242188 L 65.199219 44.390625 L 44.050781 75.023438 L 13.417969 53.871094 Z M 34.566406 23.242188 " clip-rule="nonzero"/></clipPath></defs><g clip-path="url(#1df99ca02d)"><g clip-path="url(#5c29c0b16b)"><g clip-path="url(#2dc25880c9)"><g clip-path="url(#7decc377de)"><path fill="#000000" d="M 45.820312 70.847656 L 43.199219 56.539062 L 41.898438 56.777344 L 41.347656 53.753906 C 44.121094 52.964844 46.652344 51.246094 48.414062 48.691406 C 52.449219 42.847656 50.976562 34.808594 45.132812 30.773438 C 39.289062 26.738281 31.253906 28.210938 27.21875 34.054688 C 23.183594 39.898438 24.652344 47.9375 30.5 51.972656 C 33.007812 53.703125 35.917969 54.417969 38.746094 54.210938 L 39.300781 57.253906 L 38.003906 57.492188 L 40.621094 71.800781 C 40.753906 72.515625 41.164062 73.113281 41.71875 73.496094 C 42.277344 73.882812 42.980469 74.054688 43.695312 73.921875 C 45.132812 73.660156 46.082031 72.28125 45.820312 70.847656 Z M 29.390625 35.554688 C 32.597656 30.910156 38.988281 29.742188 43.632812 32.949219 C 48.277344 36.15625 49.449219 42.542969 46.242188 47.1875 C 43.03125 51.835938 36.644531 53.003906 32 49.796875 C 27.355469 46.589844 26.183594 40.203125 29.390625 35.554688 Z M 29.390625 35.554688 " fill-opacity="1" fill-rule="nonzero"/></g></g></g></g><g clip-path="url(#973af1bc3f)"><g clip-path="url(#527dc8684f)"><g clip-path="url(#15fefad0cb)"><g clip-path="url(#30dbe1a907)"><path fill="#000000" d="M 44.453125 40.136719 C 45.082031 43.5625 44.160156 46.847656 42.246094 49.003906 C 43.238281 48.378906 44.121094 47.546875 44.828125 46.519531 C 47.636719 42.453125 46.617188 36.878906 42.550781 34.070312 C 41.5625 33.390625 40.484375 32.933594 39.378906 32.695312 C 41.867188 34.054688 43.835938 36.765625 44.453125 40.136719 Z M 44.453125 40.136719 " fill-opacity="1" fill-rule="nonzero"/></g></g></g></g><g fill="#000000" fill-opacity="1"><g transform="translate(3.943992, 97.137136)"><g><path d="M 43.359375 -10.265625 C 43.035156 -7.003906 42.175781 -4.488281 40.78125 -2.71875 C 39.394531 -0.945312 37.785156 0.191406 35.953125 0.703125 C 34.128906 1.222656 32.253906 1.195312 30.328125 0.625 C 28.398438 0.0507812 26.738281 -0.929688 25.34375 -2.328125 C 22.957031 -4.710938 20.757812 -7.546875 18.75 -10.828125 C 16.75 -14.109375 14.972656 -17.675781 13.421875 -21.53125 L 13.53125 0.171875 L 3.578125 -0.53125 L 5.375 -40.375 L 13.953125 -42.109375 C 14.953125 -38.566406 16.097656 -35.234375 17.390625 -32.109375 C 18.679688 -28.992188 20.03125 -26.125 21.4375 -23.5 C 22.851562 -20.875 24.296875 -18.5 25.765625 -16.375 C 27.234375 -14.25 28.644531 -12.367188 30 -10.734375 C 31.03125 -9.503906 31.960938 -9.023438 32.796875 -9.296875 C 33.640625 -9.578125 34.140625 -10.953125 34.296875 -13.421875 C 34.410156 -14.972656 34.414062 -16.820312 34.3125 -18.96875 C 34.21875 -21.113281 34.03125 -23.40625 33.75 -25.84375 C 33.476562 -28.289062 33.101562 -30.828125 32.625 -33.453125 C 32.144531 -36.078125 31.585938 -38.664062 30.953125 -41.21875 L 40.796875 -42.46875 C 41.347656 -40.082031 41.84375 -37.535156 42.28125 -34.828125 C 42.71875 -32.128906 43.054688 -29.375 43.296875 -26.5625 C 43.535156 -23.757812 43.664062 -20.976562 43.6875 -18.21875 C 43.707031 -15.457031 43.597656 -12.804688 43.359375 -10.265625 Z M 43.359375 -10.265625 "/></g></g></g><g fill="#000000" fill-opacity="1"><g transform="translate(56.815525, 93.973694)"><g><path d="M 29.75 -7.390625 L 14.125 -7.390625 L 11.625 0 L 0.953125 0 L 16.09375 -41.859375 L 27.90625 -41.859375 L 43.046875 0 L 32.25 0 Z M 27.125 -15.265625 L 21.9375 -30.59375 L 16.8125 -15.265625 Z M 27.125 -15.265625 "/></g></g></g><g fill="#000000" fill-opacity="1"><g transform="translate(99.381857, 93.973694)"><g><path d="M 42.984375 -41.859375 L 28.140625 0 L 15.390625 0 L 0.53125 -41.859375 L 11.390625 -41.859375 L 21.765625 -10.25 L 32.203125 -41.859375 Z M 42.984375 -41.859375 "/></g></g></g><g fill="#000000" fill-opacity="1"><g transform="translate(141.53087, 93.973694)"><g><path d="M 13.890625 -41.859375 L 13.890625 0 L 3.703125 0 L 3.703125 -41.859375 Z M 13.890625 -41.859375 "/></g></g></g><g fill="#000000" fill-opacity="1"><g transform="translate(157.746491, 93.973694)"><g><path d="M 31.484375 -28.625 C 30.722656 -30.007812 29.632812 -31.066406 28.21875 -31.796875 C 26.8125 -32.535156 25.15625 -32.90625 23.25 -32.90625 C 19.957031 -32.90625 17.316406 -31.820312 15.328125 -29.65625 C 13.335938 -27.488281 12.34375 -24.597656 12.34375 -20.984375 C 12.34375 -17.128906 13.382812 -14.117188 15.46875 -11.953125 C 17.5625 -9.785156 20.4375 -8.703125 24.09375 -8.703125 C 26.59375 -8.703125 28.707031 -9.335938 30.4375 -10.609375 C 32.164062 -11.878906 33.425781 -13.707031 34.21875 -16.09375 L 21.28125 -16.09375 L 21.28125 -23.609375 L 43.46875 -23.609375 L 43.46875 -14.125 C 42.707031 -11.582031 41.421875 -9.21875 39.609375 -7.03125 C 37.804688 -4.84375 35.515625 -3.070312 32.734375 -1.71875 C 29.953125 -0.375 26.8125 0.296875 23.3125 0.296875 C 19.175781 0.296875 15.488281 -0.601562 12.25 -2.40625 C 9.007812 -4.21875 6.484375 -6.734375 4.671875 -9.953125 C 2.867188 -13.171875 1.96875 -16.847656 1.96875 -20.984375 C 1.96875 -25.117188 2.867188 -28.804688 4.671875 -32.046875 C 6.484375 -35.285156 9 -37.804688 12.21875 -39.609375 C 15.4375 -41.421875 19.113281 -42.328125 23.25 -42.328125 C 28.257812 -42.328125 32.484375 -41.113281 35.921875 -38.6875 C 39.359375 -36.269531 41.632812 -32.914062 42.75 -28.625 Z M 31.484375 -28.625 "/></g></g></g><g fill="#000000" fill-opacity="1"><g transform="translate(201.80325, 93.973694)"><g><path d="M 13.890625 -41.859375 L 13.890625 0 L 3.703125 0 L 3.703125 -41.859375 Z M 13.890625 -41.859375 "/></g></g></g><g clip-path="url(#d380eee5b8)"><g clip-path="url(#08cba312f9)"><g clip-path="url(#4dbf2f74dc)"><path fill="#2959ac" d="M 45.796875 70.578125 L 43.179688 56.300781 L 41.882812 56.539062 L 41.332031 53.519531 C 44.101562 52.734375 46.625 51.015625 48.382812 48.46875 C 52.410156 42.636719 50.941406 34.617188 45.109375 30.589844 C 39.277344 26.566406 31.261719 28.035156 27.234375 33.863281 C 23.207031 39.695312 24.675781 47.714844 30.507812 51.742188 C 33.011719 53.46875 35.914062 54.183594 38.734375 53.976562 L 39.292969 57.011719 L 37.996094 57.25 L 40.609375 71.527344 C 40.738281 72.242188 41.148438 72.835938 41.703125 73.222656 C 42.257812 73.605469 42.960938 73.773438 43.675781 73.644531 C 45.109375 73.382812 46.058594 72.007812 45.796875 70.578125 Z M 29.402344 35.363281 C 32.605469 30.726562 38.976562 29.558594 43.613281 32.761719 C 48.25 35.960938 49.414062 42.335938 46.214844 46.96875 C 43.015625 51.605469 36.640625 52.773438 32.003906 49.570312 C 27.371094 46.371094 26.203125 39.996094 29.402344 35.363281 Z M 29.402344 35.363281 " fill-opacity="1" fill-rule="nonzero"/></g></g></g><g clip-path="url(#b90f535891)"><g clip-path="url(#37021e7386)"><g clip-path="url(#0fe2fcda52)"><path fill="#2959ac" d="M 44.433594 39.933594 C 45.058594 43.351562 44.136719 46.628906 42.230469 48.78125 C 43.21875 48.15625 44.101562 47.324219 44.804688 46.304688 C 47.609375 42.246094 46.589844 36.683594 42.53125 33.882812 C 41.546875 33.199219 40.46875 32.746094 39.367188 32.507812 C 41.851562 33.863281 43.816406 36.570312 44.433594 39.933594 Z M 44.433594 39.933594 " fill-opacity="1" fill-rule="nonzero"/></g></g></g><g fill="#2959ac" fill-opacity="1"><g transform="translate(3.948115, 97.211447)"><g><path d="M 43.359375 -10.265625 C 43.035156 -7.003906 42.175781 -4.488281 40.78125 -2.71875 C 39.394531 -0.945312 37.785156 0.191406 35.953125 0.703125 C 34.128906 1.222656 32.253906 1.195312 30.328125 0.625 C 28.398438 0.0507812 26.738281 -0.929688 25.34375 -2.328125 C 22.957031 -4.710938 20.757812 -7.546875 18.75 -10.828125 C 16.75 -14.109375 14.972656 -17.675781 13.421875 -21.53125 L 13.53125 0.171875 L 3.578125 -0.53125 L 5.375 -40.375 L 13.953125 -42.109375 C 14.953125 -38.566406 16.097656 -35.234375 17.390625 -32.109375 C 18.679688 -28.992188 20.03125 -26.125 21.4375 -23.5 C 22.851562 -20.875 24.296875 -18.5 25.765625 -16.375 C 27.234375 -14.25 28.644531 -12.367188 30 -10.734375 C 31.03125 -9.503906 31.960938 -9.023438 32.796875 -9.296875 C 33.640625 -9.578125 34.140625 -10.953125 34.296875 -13.421875 C 34.410156 -14.972656 34.414062 -16.820312 34.3125 -18.96875 C 34.21875 -21.113281 34.03125 -23.40625 33.75 -25.84375 C 33.476562 -28.289062 33.101562 -30.828125 32.625 -33.453125 C 32.144531 -36.078125 31.585938 -38.664062 30.953125 -41.21875 L 40.796875 -42.46875 C 41.347656 -40.082031 41.84375 -37.535156 42.28125 -34.828125 C 42.71875 -32.128906 43.054688 -29.375 43.296875 -26.5625 C 43.535156 -23.757812 43.664062 -20.976562 43.6875 -18.21875 C 43.707031 -15.457031 43.597656 -12.804688 43.359375 -10.265625 Z M 43.359375 -10.265625 "/></g></g></g></svg>